<mxfile host="app.diagrams.net" modified="2024-04-30T14:29:53.857Z" agent="Mozilla/5.0 (Windows NT 10.0; Win64; x64) AppleWebKit/537.36 (KHTML, like Gecko) Chrome/105.0.0.0 Safari/537.36" version="24.3.1" etag="jUZOJB45DLKlXBIhRCiX" type="github">
  <diagram name="第 1 页" id="WYX5S0YwYbf1GDDPEPDr">
    <mxGraphModel>
      <root>
        <mxCell id="0" />
        <mxCell id="1" parent="0" />
      </root>
    </mxGraphModel>
  </diagram>
</mxfile>
